<svg width="120" height="24" viewBox="0 0 120 24" fill="none" xmlns="http://www.w3.org/2000/svg">
<path d="M12.1553 8.08095L13.3788 6.84286C13.9862 6.20794 14.3226 5.35688 14.3155 4.47323C14.3084 3.58958 13.9584 2.74416 13.3409 2.1193C12.7234 1.49445 11.8879 1.14023 11.0147 1.13306C10.1414 1.12589 9.30036 1.46633 8.67292 2.08095L7.4494 3.31905C7.0381 3.73524 6.53646 4.04952 5.98305 4.23619L4 4.90476V5.14286L10.3529 11.5714H10.5882L11.2498 9.56476C11.4334 9.00571 11.744 8.4981 12.1553 8.08095ZM12.1553 8.08095L12.2541 8.2381C13.3742 10.2085 15.1714 11.6933 17.3035 12.4095M17.3035 12.4095C17.435 12.116 17.6599 11.8761 17.9432 11.7288C18.2265 11.5816 18.5507 11.5356 18.8631 11.5983C19.1756 11.6611 19.4578 11.8289 19.6641 12.0745C19.8703 12.3202 19.9884 12.6291 19.9992 12.9513C20.01 13.2734 19.9128 13.5897 19.7234 13.8489C19.534 14.108 19.2636 14.2948 18.9561 14.3788C18.6486 14.4628 18.3221 14.4391 18.0295 14.3115C17.737 14.184 17.4957 13.9601 17.3449 13.6762C15.2066 14.5906 13.4533 16.2354 12.3905 18.3238C12.1063 18.8838 12 19.5143 12 20.1429M17.3035 12.4095C17.2131 12.6095 17.1689 12.828 17.1761 13.0478C17.1832 13.2676 17.2407 13.4827 17.3439 13.6762M6.82352 10.619C6.69992 10.7441 6.55319 10.8433 6.3917 10.911C6.23022 10.9787 6.05714 11.0135 5.88234 11.0135C5.52934 11.0135 5.19079 10.8716 4.94117 10.619C4.81758 10.494 4.71953 10.3455 4.65264 10.1821C4.58575 10.0187 4.55133 9.84354 4.55133 9.66667C4.55133 9.30945 4.69156 8.96687 4.94117 8.71429M13.3788 2.0819L14.447 1M12 20.1429C17.1764 20.1429 19.9999 22.0476 19.9999 22.0476V23H4V22.0476C4 22.0476 6.82352 20.1429 12 20.1429Z" stroke="#3863E8"/>
<path d="M4.77979 5.05748C5.27839 5.33448 5.94255 5.44517 6.49634 5.54014C6.77318 5.58762 7.12834 5.52708 7.27659 5.24619C7.32148 5.16114 7.35514 5.0703 7.39998 4.98489C7.47153 4.8486 7.67579 4.59747 7.67579 4.44416C7.67579 4.41864 7.63953 4.39659 7.6141 4.3988C7.45185 4.41291 6.93534 4.62908 6.86651 4.65646C6.64208 4.74572 6.31507 4.87842 6.08262 4.98852C6.03896 5.00921 5.96286 5.02186 5.96286 5.07018C5.96286 5.13027 6.87373 4.86032 6.95905 4.81614C7.49321 4.53952 8.04941 4.08463 8.35806 3.5623C8.49487 3.33076 8.58912 3.10352 8.79536 2.91632C9.24324 2.50978 9.76851 2.36952 10.3541 2.28123C10.8208 2.21085 11.3196 2.12418 11.7948 2.15058C11.8537 2.15385 11.8881 2.18029 11.9345 2.21591C12.1465 2.37857 12.3621 2.54298 12.5587 2.72398C12.981 3.11277 13.2124 3.68245 13.4823 4.17924C13.6925 4.56601 13.6744 4.98537 13.4406 5.36595C13.0236 6.04451 12.3427 6.53378 11.8928 7.18412C11.6302 7.56366 11.387 7.99168 11.1978 8.41256C11.01 8.83027 10.902 9.29864 10.6916 9.7027C10.6537 9.77532 10.4174 10.3436 10.4049 10.3396C10.3203 10.3129 10.2218 10.2271 10.1581 10.1745C9.81681 9.89255 9.54895 9.53703 9.25081 9.21277C8.92117 8.85425 8.57337 8.51067 8.20564 8.19119C7.68562 7.7394 7.11067 7.36637 6.57074 6.94097C6.35004 6.76709 6.15365 6.56808 5.93746 6.38935C5.81359 6.28694 5.62627 6.19601 5.52193 6.0718C5.45382 5.99072 5.73532 6.06178 5.83948 6.08088C6.27287 6.16036 6.72472 6.25775 7.12054 6.4583C7.45346 6.62698 7.76492 6.85104 8.08588 7.04077C8.41985 7.23819 8.75364 7.42032 9.05303 7.6686C9.34689 7.91229 9.44288 8.15829 9.59557 8.49421C9.66093 8.63799 9.77094 8.74792 9.84961 8.88252C9.89893 8.96692 9.95851 9.13656 10.0837 9.13656C10.1463 9.13656 10.12 9.01646 10.1327 8.95511C10.2445 8.41315 10.4058 7.87936 10.6117 7.36557C10.9055 6.63265 11.3799 5.89952 12.0053 5.40224C12.1735 5.26844 12.3841 5.12235 12.5986 5.07744C12.8164 5.03187 12.7592 4.98299 12.6549 4.75263C12.1873 3.72004 11.4963 2.68563 10.5863 1.98728C10.4737 1.90084 10.3779 1.91685 10.2524 1.98002C9.5668 2.32517 9.23085 3.1016 8.82984 3.7129C8.43706 4.31164 8.03458 4.88884 7.60684 5.4603C7.53475 5.55661 7.42336 5.6991 7.44897 5.83228C7.51168 6.15835 8.47279 5.94006 8.57762 5.91575C9.39462 5.72634 10.1018 5.32849 10.6734 4.70908C11.0713 4.2779 11.3066 3.75334 11.5752 3.24294C11.6105 3.17601 11.6802 3.12201 11.6896 3.04697C11.6937 3.01353 11.624 3.06583 11.5952 3.08326C11.4553 3.16777 11.322 3.26256 11.1851 3.35181C10.8305 3.58305 10.1354 4.03758 9.7734 4.25908C9.63242 4.34533 9.49317 4.43607 9.34335 4.50586C9.29612 4.52786 9.22676 4.56729 9.18912 4.53126C9.06776 4.4151 9.51665 3.95258 9.55021 3.92157C9.58876 3.88597 9.86122 3.63751 9.98933 3.67298C10.1226 3.7099 9.99192 3.96156 9.92582 4.08307C9.78622 4.3397 9.43718 4.89619 9.08024 4.8978C8.91209 4.89855 9.00045 4.53935 9.08387 4.39335C9.26629 4.07413 9.63925 3.67007 9.94396 3.46794C10.3396 3.20551 10.7355 3.23957 10.5791 3.8C10.4654 4.20727 10.1263 4.77561 9.71896 4.95949C9.29527 5.15074 9.44027 4.37686 9.46493 4.27904C9.60425 3.72616 9.94091 3.30849 10.3395 2.92176C10.6412 2.62911 10.7604 2.18339 11.0145 1.84756C11.0382 1.81629 11.1129 1.72544 11.0871 1.75501C10.8495 2.02798 10.6227 2.3113 10.4103 2.60422C9.96106 3.22365 9.57996 3.87434 9.19637 4.53489C8.9928 4.88546 8.79059 5.28312 8.46693 5.54377C8.37085 5.62115 8.08199 5.61177 8.16027 5.7343C8.35859 6.04472 8.61467 6.33025 8.85524 6.60709C9.05184 6.83333 9.32744 7.23828 9.64638 7.32202C9.81275 7.36571 10.0696 7.3505 10.1889 7.20589C10.3555 7.00404 10.2262 6.65309 10.2597 6.42201C10.297 6.16448 10.427 5.81474 10.6643 5.66898C10.9184 5.5129 10.6218 6.82741 10.6117 6.86476C10.5823 6.97371 10.5658 7.09297 10.4992 7.18412C10.3543 7.3826 10.5668 6.69392 10.648 6.46193C10.8224 5.96365 11.0185 5.54695 11.2831 5.09377C11.2859 5.08902 11.5617 4.64752 11.6641 4.57481C11.9164 4.39578 11.3342 5.09879 11.1506 5.3478C11.0615 5.46876 10.7237 5.92562 10.5845 6.08995C10.5026 6.18662 10.7247 5.87846 10.8041 5.77966C11.0807 5.43511 11.4105 4.96305 11.8021 4.73449C11.8381 4.71345 11.904 4.70167 11.9273 4.7363C12.0402 4.90425 11.9192 5.14196 11.891 5.34236C11.8296 5.77711 11.7528 6.20781 11.675 6.63975C11.5855 7.13722 11.8573 6.54134 11.9254 6.43653C11.9783 6.35518 12.4303 5.75065 11.9454 6.2206C11.5222 6.63077 11.0849 7.06691 10.7351 7.5434C10.7028 7.58745 10.6224 7.72923 10.6589 7.68856C10.9909 7.31856 11.2873 6.91392 11.6133 6.53814C11.6821 6.45891 11.7485 6.37694 11.8256 6.30588C11.8421 6.29072 11.8901 6.26174 11.8892 6.2841C11.8868 6.34093 11.8488 6.391 11.8202 6.44016C11.645 6.74129 11.3617 7.05118 11.0399 7.19863C10.016 7.66783 10.1755 5.65827 10.0093 5.69801C9.85469 5.73498 9.65643 6.04606 9.55928 6.15709C9.46572 6.26401 9.36637 6.36207 9.3996 6.51274C9.40825 6.55194 9.43974 6.65003 9.4613 6.61617C9.50435 6.54851 9.48664 6.45743 9.50847 6.38028C9.61481 6.00457 9.71889 5.75441 9.8859 5.37865C10.1725 4.73386 10.5151 4.11864 10.8186 3.48246C10.9157 3.2789 10.9758 3.12966 10.9891 2.91269C11.0087 2.59493 11.1076 2.28846 11.1416 1.97276C11.1536 1.86108 11.1488 1.74743 11.1488 1.63525C11.1488 1.63473 11.0947 1.92855 11.0835 1.98728" stroke="#3863E8" stroke-linecap="round"/>
<path d="M13.3373 5.09033C12.7271 5.57054 12.1089 6.03943 11.4937 6.51293C10.9808 6.90764 10.5004 7.34238 9.98399 7.7323C9.87303 7.81608 9.64648 7.93786 9.64648 7.70327" stroke="#3863E8" stroke-linecap="round"/>
<path d="M33.056 18.112C32.2347 18.112 31.4987 17.9787 30.848 17.712C30.1973 17.4453 29.6747 17.0507 29.28 16.528C28.896 16.0053 28.6933 15.376 28.672 14.64H31.584C31.6267 15.056 31.7707 15.376 32.016 15.6C32.2613 15.8133 32.5813 15.92 32.976 15.92C33.3813 15.92 33.7013 15.8293 33.936 15.648C34.1707 15.456 34.288 15.1947 34.288 14.864C34.288 14.5867 34.192 14.3573 34 14.176C33.8187 13.9947 33.5893 13.8453 33.312 13.728C33.0453 13.6107 32.6613 13.4773 32.16 13.328C31.4347 13.104 30.8427 12.88 30.384 12.656C29.9253 12.432 29.5307 12.1013 29.2 11.664C28.8693 11.2267 28.704 10.656 28.704 9.952C28.704 8.90667 29.0827 8.09067 29.84 7.504C30.5973 6.90667 31.584 6.608 32.8 6.608C34.0373 6.608 35.0347 6.90667 35.792 7.504C36.5493 8.09067 36.9547 8.912 37.008 9.968H34.048C34.0267 9.60533 33.8933 9.32267 33.648 9.12C33.4027 8.90667 33.088 8.8 32.704 8.8C32.3733 8.8 32.1067 8.89067 31.904 9.072C31.7013 9.24267 31.6 9.49333 31.6 9.824C31.6 10.1867 31.7707 10.4693 32.112 10.672C32.4533 10.8747 32.9867 11.0933 33.712 11.328C34.4373 11.5733 35.024 11.808 35.472 12.032C35.9307 12.256 36.3253 12.5813 36.656 13.008C36.9867 13.4347 37.152 13.984 37.152 14.656C37.152 15.296 36.9867 15.8773 36.656 16.4C36.336 16.9227 35.8667 17.3387 35.248 17.648C34.6293 17.9573 33.8987 18.112 33.056 18.112ZM43.8118 15.68V18H42.4198C41.4278 18 40.6544 17.76 40.0998 17.28C39.5451 16.7893 39.2678 15.9947 39.2678 14.896V11.344H38.1798V9.072H39.2678V6.896H42.0038V9.072H43.7958V11.344H42.0038V14.928C42.0038 15.1947 42.0678 15.3867 42.1958 15.504C42.3238 15.6213 42.5371 15.68 42.8358 15.68H43.8118ZM54.1518 9.072V18H51.4158V16.784C51.1384 17.1787 50.7598 17.4987 50.2798 17.744C49.8104 17.9787 49.2878 18.096 48.7118 18.096C48.0291 18.096 47.4264 17.9467 46.9038 17.648C46.3811 17.3387 45.9758 16.896 45.6878 16.32C45.3998 15.744 45.2558 15.0667 45.2558 14.288V9.072H47.9758V13.92C47.9758 14.5173 48.1304 14.9813 48.4398 15.312C48.7491 15.6427 49.1651 15.808 49.6878 15.808C50.2211 15.808 50.6424 15.6427 50.9518 15.312C51.2611 14.9813 51.4158 14.5173 51.4158 13.92V9.072H54.1518ZM55.573 13.52C55.573 12.6027 55.7437 11.7973 56.085 11.104C56.437 10.4107 56.9117 9.87733 57.509 9.504C58.1063 9.13067 58.773 8.944 59.509 8.944C60.0957 8.944 60.629 9.06667 61.109 9.312C61.5997 9.55733 61.9837 9.888 62.261 10.304V6.16H64.997V18H62.261V16.72C62.005 17.1467 61.637 17.488 61.157 17.744C60.6877 18 60.1383 18.128 59.509 18.128C58.773 18.128 58.1063 17.9413 57.509 17.568C56.9117 17.184 56.437 16.6453 56.085 15.952C55.7437 15.248 55.573 14.4373 55.573 13.52ZM62.261 13.536C62.261 12.8533 62.069 12.3147 61.685 11.92C61.3117 11.5253 60.853 11.328 60.309 11.328C59.765 11.328 59.301 11.5253 58.917 11.92C58.5437 12.304 58.357 12.8373 58.357 13.52C58.357 14.2027 58.5437 14.7467 58.917 15.152C59.301 15.5467 59.765 15.744 60.309 15.744C60.853 15.744 61.3117 15.5467 61.685 15.152C62.069 14.7573 62.261 14.2187 62.261 13.536ZM76.0964 9.072L70.4964 22.24H67.5524L69.6004 17.696L65.9684 9.072H69.0244L71.0884 14.656L73.1364 9.072H76.0964ZM86.2044 18L83.8684 13.76H83.2124V18H80.4764V6.768H85.0684C85.9537 6.768 86.7057 6.92267 87.3244 7.232C87.9537 7.54133 88.423 7.968 88.7324 8.512C89.0417 9.04533 89.1964 9.64267 89.1964 10.304C89.1964 11.0507 88.983 11.7173 88.5564 12.304C88.1404 12.8907 87.5217 13.3067 86.7004 13.552L89.2924 18H86.2044ZM83.2124 11.824H84.9084C85.4097 11.824 85.783 11.7013 86.0284 11.456C86.2844 11.2107 86.4124 10.864 86.4124 10.416C86.4124 9.98933 86.2844 9.65333 86.0284 9.408C85.783 9.16267 85.4097 9.04 84.9084 9.04H83.2124V11.824ZM90.3699 13.52C90.3699 12.6027 90.5405 11.7973 90.8819 11.104C91.2339 10.4107 91.7085 9.87733 92.3059 9.504C92.9032 9.13067 93.5699 8.944 94.3059 8.944C94.9352 8.944 95.4845 9.072 95.9539 9.328C96.4339 9.584 96.8019 9.92 97.0579 10.336V9.072H99.7939V18H97.0579V16.736C96.7912 17.152 96.4179 17.488 95.9379 17.744C95.4685 18 94.9192 18.128 94.2899 18.128C93.5645 18.128 92.9032 17.9413 92.3059 17.568C91.7085 17.184 91.2339 16.6453 90.8819 15.952C90.5405 15.248 90.3699 14.4373 90.3699 13.52ZM97.0579 13.536C97.0579 12.8533 96.8659 12.3147 96.4819 11.92C96.1085 11.5253 95.6499 11.328 95.1059 11.328C94.5619 11.328 94.0979 11.5253 93.7139 11.92C93.3405 12.304 93.1539 12.8373 93.1539 13.52C93.1539 14.2027 93.3405 14.7467 93.7139 15.152C94.0979 15.5467 94.5619 15.744 95.1059 15.744C95.6499 15.744 96.1085 15.5467 96.4819 15.152C96.8659 14.7573 97.0579 14.2187 97.0579 13.536ZM103.149 8.144C102.669 8.144 102.275 8.00533 101.965 7.728C101.667 7.44 101.517 7.088 101.517 6.672C101.517 6.24533 101.667 5.89333 101.965 5.616C102.275 5.328 102.669 5.184 103.149 5.184C103.619 5.184 104.003 5.328 104.301 5.616C104.611 5.89333 104.765 6.24533 104.765 6.672C104.765 7.088 104.611 7.44 104.301 7.728C104.003 8.00533 103.619 8.144 103.149 8.144ZM104.509 9.072V18H101.773V9.072H104.509ZM109.228 6.16V18H106.492V6.16H109.228ZM114.843 18.128C114.064 18.128 113.371 17.9947 112.763 17.728C112.155 17.4613 111.675 17.0987 111.323 16.64C110.971 16.1707 110.773 15.648 110.731 15.072H113.435C113.467 15.3813 113.611 15.632 113.867 15.824C114.123 16.016 114.437 16.112 114.811 16.112C115.152 16.112 115.413 16.048 115.595 15.92C115.787 15.7813 115.883 15.6053 115.883 15.392C115.883 15.136 115.749 14.9493 115.483 14.832C115.216 14.704 114.784 14.5653 114.187 14.416C113.547 14.2667 113.013 14.112 112.587 13.952C112.16 13.7813 111.792 13.52 111.483 13.168C111.173 12.8053 111.019 12.32 111.019 11.712C111.019 11.2 111.157 10.736 111.435 10.32C111.723 9.89333 112.139 9.55733 112.683 9.312C113.237 9.06667 113.893 8.944 114.651 8.944C115.771 8.944 116.651 9.22133 117.291 9.776C117.941 10.3307 118.315 11.0667 118.411 11.984H115.883C115.84 11.6747 115.701 11.4293 115.467 11.248C115.243 11.0667 114.944 10.976 114.571 10.976C114.251 10.976 114.005 11.04 113.835 11.168C113.664 11.2853 113.579 11.4507 113.579 11.664C113.579 11.92 113.712 12.112 113.979 12.24C114.256 12.368 114.683 12.496 115.259 12.624C115.92 12.7947 116.459 12.9653 116.875 13.136C117.291 13.296 117.653 13.5627 117.963 13.936C118.283 14.2987 118.448 14.7893 118.459 15.408C118.459 15.9307 118.309 16.4 118.011 16.816C117.723 17.2213 117.301 17.5413 116.747 17.776C116.203 18.0107 115.568 18.128 114.843 18.128Z" fill="#3863E8"/>
</svg>
